<svg xmlns="http://www.w3.org/2000/svg" xmlns:xlink="http://www.w3.org/1999/xlink" version="1.1" x="0px" y="0px" viewBox="0 0 100 125" enable-background="new 0 0 100 100" xml:space="preserve"><path d="M88.5,23.667h-0.063v-16c0-1.104-0.896-2-2-2H13.563c-1.104,0-2,0.896-2,2v16H11.5c-3.859,0-7,3.141-7,7v33.666  c0,3.859,3.141,7,7,7h9.667v21c0,1.104,0.896,2,2,2h54.666c1.104,0,2-0.896,2-2v-21H88.5c3.859,0,7-3.141,7-7V30.667  C95.5,26.808,92.359,23.667,88.5,23.667z M15.563,9.667h68.875v14H15.563V9.667z M75.833,90.333H25.167V61h50.666V90.333z   M91.5,64.333c0,1.654-1.346,3-3,3h-8.667V61h2.334c1.104,0,2-0.896,2-2s-0.896-2-2-2H17.833c-1.104,0-2,0.896-2,2s0.896,2,2,2  h3.334v6.333H11.5c-1.654,0-3-1.346-3-3V30.667c0-1.654,1.346-3,3-3h77c1.654,0,3,1.346,3,3V64.333z M34,73.333h32  c1.104,0,2-0.896,2-2s-0.896-2-2-2H34c-1.104,0-2,0.896-2,2S32.896,73.333,34,73.333z M34,84.001h32c1.104,0,2-0.896,2-2  s-0.896-2-2-2H34c-1.104,0-2,0.896-2,2S32.896,84.001,34,84.001z M82.168,35.166H63.834c-1.104,0-2,0.896-2,2V46.5  c0,1.104,0.896,2,2,2h18.334c1.104,0,2-0.896,2-2v-9.334C84.168,36.062,83.272,35.166,82.168,35.166z M80.168,44.5H65.834v-5.334  h14.334V44.5z"/></svg>